<?xml version="1.0" encoding="iso-8859-1"?>
<!-- Uploaded to: SVG Repo, www.svgrepo.com, Generator: SVG Repo Mixer Tools -->
<!DOCTYPE svg PUBLIC "-//W3C//DTD SVG 1.1//EN" "http://www.w3.org/Graphics/SVG/1.1/DTD/svg11.dtd">
<svg fill="#000000" height="800px" width="800px" version="1.1" id="Capa_1" xmlns="http://www.w3.org/2000/svg" xmlns:xlink="http://www.w3.org/1999/xlink" 
	 viewBox="0 0 368.345 368.345" xml:space="preserve">
<path id="_x30_1-Film_roll" d="M270.263,300.109C300.901,270.961,320,229.798,320,184.172c0-88.366-71.636-160-160-160
	c-88.366,0-160,71.634-160,160c0,88.365,71.634,160,160,160c1.891,0,5.646-0.001,5.646-0.001c32.932,0,58.444-3.813,85.306-12.747
	c63.635-21.163,103.644-0.651,105.316,0.232l6.005-11.197l6.071-11.161C366.57,308.332,329.317,288.647,270.263,300.109z
	 M235.745,92.622c4.502-2.598,10.258-1.056,12.856,3.445l32,55.426c2.6,4.501,1.058,10.258-3.444,12.857
	c-19.775,11.416-45.152,4.617-56.57-15.158C209.17,129.416,215.971,104.04,235.745,92.622z M84.254,275.722
	c-4.501,2.599-10.258,1.056-12.857-3.445l-32-55.426c-2.598-4.501-1.056-10.257,3.445-12.856
	c19.775-11.418,45.152-4.617,56.569,15.157C110.829,238.928,104.029,264.305,84.254,275.722z M99.411,149.192
	c-11.417,19.775-36.794,26.574-56.569,15.158c-4.501-2.6-6.043-8.356-3.445-12.857l32-55.426c2.6-4.501,8.356-6.043,12.857-3.445
	C104.029,104.04,110.829,129.416,99.411,149.192z M192,304.957h-64c-5.199,0-9.412-4.214-9.412-9.412
	c0-22.834,18.576-41.411,41.412-41.412c22.834,0,41.411,18.578,41.411,41.412C201.411,300.743,197.197,304.957,192,304.957z
	 M129.835,184.172c0-16.66,13.506-30.164,30.165-30.164c16.659,0,30.163,13.504,30.163,30.164c0,16.658-13.504,30.164-30.163,30.164
	C143.341,214.336,129.835,200.831,129.835,184.172z M160,114.211c-22.835,0-41.412-18.578-41.412-41.412
	c0-5.197,4.213-9.412,9.412-9.412h64c5.197,0,9.411,4.215,9.411,9.412C201.411,95.633,182.834,114.211,160,114.211z
	 M248.602,272.277c-2.599,4.501-8.355,6.044-12.856,3.445c-19.775-11.417-26.575-36.794-15.158-56.57
	c11.417-19.774,36.795-26.575,56.57-15.157c4.502,2.6,6.044,8.355,3.444,12.856L248.602,272.277z"/>
</svg>